 
http://www.imdb.com/title/tt0848537/


A teenager finds herself transported to a deep forest setting where a battle between the forces of good and the forces of evil is taking place. She bands together with a rag-tag group characters in order to save their world -- and ours. 



Director:
 Chris Wedge 

Writers:
 James V. Hart (screenplay), William Joyce (screenplay)

Stars:
 Colin Farrell, Josh Hutcherson, Beyoncé Knowles 

Genres:
  Animation |  Adventure |  Family |  Fantasy 

Country:
 USA 

Language:
 English 




Format                                   : AVI
Format/Info                              : Audio Video Interleave
Format profile                           : OpenDML
Format settings                          : rec
File size                                : 1.40 GiB
Duration                                 : 1h 34mn
Overall bit rate                         : 2 129 Kbps
Writing application                      : AVI-Mux GUI 1.17.8.3, Feb 16 201019:42:50

Video
ID                                       : 0
Format                                   : xvid
Codec ID                                 : xvid
Duration                                 : 1h 34mn
Bit rate                                 : 1 931 Kbps
Width                                    : 704 pixels
Height                                   : 304 pixels
Display aspect ratio                     : 2.35:1
Frame rate                               : 23.976 fps
Bits/(Pixel*Frame)                       : 0.376
Stream size                              : 1.27 GiB (91%)

Audio
ID                                       : 1
Format                                   : AC-3
Format/Info                              : Audio Coding 3
Mode extension                           : CM (complete main)
Format settings, Endianness              : Big
Codec ID                                 : 2000
Duration                                 : 1h 34mn
Bit rate mode                            : Constant
Bit rate                                 : 192 Kbps
Channel(s)                               : 2 channels
Channel positions                        : Front: L R
Sampling rate                            : 48.0 KHz
Bit depth                                : 16 bits
Compression mode                         : Lossy
Stream size                              : 129 MiB (9%)
Alignment                                : Aligned on interleaves
Interleave, duration                     : 64 ms (1.53 video frames)
Interleave, preload duration             : 192 ms
Title                                    : 120101_003-AUDIO




    	http://addpix.net/viewer.php?file=88616418597450951242.jpg
    	http://addpix.net/viewer.php?file=08845084518104860284.jpg
    	http://addpix.net/viewer.php?file=12096980462349350581.jpg
    	http://addpix.net/viewer.php?file=19903994001504459222.jpg
    	http://addpix.net/viewer.php?file=86275367188177896046.jpg